<?xml version="1.0" encoding="UTF-8" standalone="no"?><!DOCTYPE svg PUBLIC "-//W3C//DTD SVG 1.1//EN" "http://www.w3.org/Graphics/SVG/1.1/DTD/svg11.dtd"><svg width="100%" height="100%" viewBox="0 0 6213 1982" version="1.1" xmlns="http://www.w3.org/2000/svg" xmlns:xlink="http://www.w3.org/1999/xlink" xml:space="preserve" xmlns:serif="http://www.serif.com/" style="fill-rule:evenodd;clip-rule:evenodd;stroke-linejoin:round;stroke-miterlimit:2;"><g id="g857"><g id="g835"><path id="path833" d="M1315.39,658.604c-0,174.175 -59.875,324.763 -179.621,451.767l139.704,139.704l-116.117,105.229l-143.333,-145.146c-110.675,70.759 -230.421,107.046 -359.237,107.046c-181.434,0 -335.651,-63.5 -464.471,-192.317c-128.817,-128.82 -192.317,-283.037 -192.317,-466.283c0,-183.25 63.5,-337.467 192.317,-466.283c128.82,-128.821 283.037,-192.321 464.471,-192.321c181.433,-0 335.65,63.5 464.466,192.321c128.821,128.816 194.138,283.033 194.138,466.283Zm-658.605,493.496c87.088,0 166.917,-19.958 239.492,-61.688l-254.008,-255.82l116.121,-103.417l261.262,261.263c85.275,-92.53 127.004,-203.205 127.004,-333.834c0,-139.704 -47.175,-255.821 -143.333,-351.983c-94.346,-96.158 -210.462,-143.329 -346.537,-143.329c-136.075,-0 -252.192,47.171 -348.35,143.329c-94.346,96.162 -141.521,212.279 -141.521,351.983c-0,137.888 47.175,254.004 141.521,350.163c96.158,96.162 212.275,143.333 348.35,143.333Z" style="fill:#113579;fill-rule:nonzero;"/></g><g id="g839"><path id="path837" d="M2146.35,386.454l157.846,0l0,907.163l-157.846,-0l0,-130.629c-63.504,103.416 -161.475,154.216 -293.921,154.216c-107.046,0 -192.321,-34.471 -255.821,-101.6c-63.504,-67.133 -96.162,-157.85 -96.162,-272.15l-0,-557l157.85,0l0,547.925c0,74.388 19.954,130.633 59.871,172.363c39.916,39.916 94.346,59.875 165.104,59.875c78.017,-0 141.517,-23.588 190.504,-72.575c48.988,-48.988 72.575,-125.188 72.575,-226.792l0,-480.796Z" style="fill:#113579;fill-rule:nonzero;"/></g><g id="g843"><path id="path841" d="M3309.34,1179.32c-92.534,92.529 -206.838,137.887 -339.284,137.887c-132.445,0 -244.933,-45.358 -339.279,-137.887c-90.717,-92.534 -137.887,-205.021 -137.887,-339.279c-0,-134.263 47.171,-246.75 139.704,-339.284c92.529,-92.529 205.017,-137.887 337.462,-137.887c132.446,-0 246.75,45.358 339.284,137.887c92.529,92.534 139.7,205.021 139.7,339.284c-0,134.258 -47.171,246.745 -139.7,339.279Zm-339.284,-16.329c90.717,-0 166.921,-30.846 228.609,-92.534c61.687,-61.687 92.529,-137.887 92.529,-230.416c-0,-92.534 -30.842,-168.734 -92.529,-230.421c-61.688,-61.688 -137.892,-92.534 -228.609,-92.534c-88.9,0 -165.104,30.846 -226.791,92.534c-61.684,61.687 -92.529,137.887 -92.529,230.421c-0,92.529 30.845,168.729 92.529,230.416c61.687,61.688 137.891,92.534 226.791,92.534Z" style="fill:#113579;fill-rule:nonzero;"/></g><g id="g847"><path id="path845" d="M4387.05,23.588l157.846,-0l-0,1270.03l-157.846,-0l-0,-156.029c-78.017,119.745 -192.321,179.616 -342.909,179.616c-127.004,0 -235.866,-45.358 -324.766,-139.704c-88.904,-92.529 -134.263,-205.017 -134.263,-337.462c0,-132.45 45.359,-244.938 134.263,-339.284c88.9,-90.716 197.762,-137.887 324.766,-137.887c150.588,-0 264.892,59.871 342.909,179.616l-0,-518.895Zm-322.954,1141.21c92.533,0 168.733,-30.842 230.42,-92.529c61.688,-63.504 92.534,-139.704 92.534,-232.234c-0,-92.533 -30.846,-168.733 -92.533,-230.42c-61.688,-63.504 -137.888,-94.346 -230.421,-94.346c-90.717,-0 -166.917,30.841 -228.604,94.346c-61.688,61.687 -92.53,137.887 -92.53,230.42c0,92.53 30.842,168.73 92.53,232.234c61.687,61.687 137.887,92.529 228.604,92.529Z" style="fill:#113579;fill-rule:nonzero;"/></g><g id="g851"><path id="path849" d="M4884.17,1313.58c-32.658,0 -59.871,-10.883 -83.458,-34.471c-23.588,-23.587 -34.471,-50.8 -34.471,-83.458c-0,-32.658 10.883,-59.875 34.471,-83.463c23.587,-23.583 50.8,-34.47 83.458,-34.47c34.475,-0 61.687,10.887 85.275,34.47c21.771,23.588 32.658,50.805 32.658,83.463c0,32.658 -10.887,59.871 -32.658,83.458c-23.588,23.588 -50.8,34.471 -85.275,34.471Z" style="fill:#113579;fill-rule:nonzero;"/></g><g id="g855"><path id="path853" d="M6212.25,1293.62l-379.196,-651.342l361.055,-618.688l-330.209,0.001l-195.95,335.65l-195.946,-335.651l-330.208,0l361.05,618.688l-379.196,651.342l330.208,-0l214.092,-366.492l214.092,366.492l330.208,-0Z" style="fill:#fcaf16;fill-rule:nonzero;"/></g></g><path id="path859" d="M1529.41,1725.98l0,-40.833l-20.837,-0l0,208.333l20.833,0l0,-115.833c0,-53.334 33.75,-75.417 69.584,-75.417l-0,-20c-28.334,0 -55.417,10.833 -69.584,43.75l0.004,0Z" style="fill:#002137;fill-rule:nonzero;"/><path id="path861" d="M1722.33,1680.56c-63.75,-0 -107.917,47.5 -107.917,108.75c0,62.916 45.417,108.75 109.584,108.75c41.25,-0 73.75,-18.75 90.833,-47.084l-18.337,-10.833c-12.08,22.083 -37.913,37.917 -72.084,37.917c-47.495,-0 -83.329,-30.834 -88.329,-77.917l188.75,-0c0,-3.333 0.417,-6.667 0.417,-10c-0,-57.083 -39.583,-109.583 -102.917,-109.583Zm-0.004,20c40.833,-0 76.667,28.333 81.25,79.166l-167.5,0c4.167,-46.25 38.75,-79.166 86.25,-79.166Z" style="fill:#002137;fill-rule:nonzero;"/><path id="path863" d="M1966.08,1597.23c-54.587,0 -83.333,25.417 -83.333,76.667l-0,11.25l-35.838,-0l0,20.417l35.834,-0l-0,187.916l21.25,0l-0,-187.917l49.583,0l0,-20.416l-49.583,-0l-0,-11.25c-0,-40.417 19.583,-57.5 62.083,-57.5c10,-0 19.583,0.417 29.167,1.666l-0,275.417l21.25,0l-0,-291.666c-17.5,-2.917 -32.5,-4.584 -50.417,-4.584l0.004,0Z" style="fill:#002137;fill-rule:nonzero;"/><path id="path865" d="M2174,1680.56c-63.754,-0 -107.917,47.5 -107.917,108.75c0,62.916 45.413,108.75 109.579,108.75c41.25,-0 73.75,-18.75 90.834,-47.084l-18.329,-10.833c-12.088,22.083 -37.921,37.917 -72.084,37.917c-47.5,-0 -83.333,-30.834 -88.337,-77.917l188.75,-0c-0,-3.333 0.42,-6.667 0.42,-10c0,-57.083 -39.583,-109.583 -102.916,-109.583Zm-0,20c40.833,-0 76.667,28.333 81.25,79.166l-167.5,0c4.167,-46.25 38.75,-79.166 86.25,-79.166Z" style="fill:#002137;fill-rule:nonzero;"/><path id="path867" d="M2421.08,1898.06c40.829,-0 75.829,-20.834 92.5,-52.917l-17.504,-10.417c-13.75,25.834 -41.25,43.333 -75,43.333c-50.417,0 -88.329,-39.166 -88.329,-88.749c-0,-49.584 37.912,-88.751 88.329,-88.751c33.333,0 61.667,17.084 73.75,43.334l17.083,-10c-15,-32.5 -50,-53.334 -90.833,-53.334c-62.917,0 -109.583,47.084 -109.583,108.751c-0,61.666 46.666,108.75 109.583,108.75l0.004,-0Z" style="fill:#002137;fill-rule:nonzero;"/><path id="path869" d="M2666.08,1705.56l0,-20.417l-62.083,-0l-0,-58.333l-21.25,6.25l-0,52.083l-45.834,-0l0,20.417l45.834,-0l-0,135.416c-0,47.5 28.75,60.834 83.333,52.5l0,-18.75c-42.5,3.75 -62.083,2.917 -62.083,-33.75l-0,-135.416l62.083,-0Z" style="fill:#002137;fill-rule:nonzero;"/><path id="path871" d="M2728.58,1897.65c10.417,-0 18.75,-8.333 18.75,-18.75c0,-10.417 -8.333,-18.75 -18.75,-18.75c-10.833,-0 -18.75,8.333 -18.75,18.75c0,10.417 7.913,18.75 18.75,18.75Z" style="fill:#002137;fill-rule:nonzero;"/><path id="path873" d="M3027.33,1680.56c-27.917,-0 -54.583,13.333 -69.583,42.5c-10.834,-27.5 -34.583,-42.5 -65,-42.5c-26.667,-0 -51.667,11.666 -67.084,40.416l0,-35.833l-20.833,-0l0,208.333l20.833,0l0,-116.25c0,-53.333 30.417,-76.667 64.584,-76.667c32.083,0 53.333,21.251 53.333,60.834l0,132.083l20.833,0l0,-116.25c0,-53.333 27.5,-76.666 62.5,-76.666c32.5,-0 55.417,21.25 55.417,60.833l0,132.083l20.833,0l0,-132.083c0,-52.083 -31.666,-80.833 -75.833,-80.833Z" style="fill:#002137;fill-rule:nonzero;"/><path id="path875" d="M3345.25,1685.15l-0,47.083c-17.504,-31.25 -49.584,-51.666 -89.584,-51.666c-59.166,-0 -107.916,47.083 -107.916,108.75c-0,61.666 48.746,108.75 107.916,108.75c40,-0 72.08,-20.417 89.584,-51.667l-0,47.083l21.25,0l-0,-208.333l-21.254,-0l0.004,-0Zm-87.913,192.917c-49.583,-0 -88.333,-39.167 -88.333,-88.75c-0,-49.584 38.75,-88.75 88.333,-88.75c49.584,-0 87.917,39.166 87.917,88.75c0,49.583 -38.333,88.75 -87.917,88.75Z" style="fill:#002137;fill-rule:nonzero;"/><path id="path877" d="M3526.08,1680.56c-32.087,-0 -58.754,13.333 -74.583,44.166l-0,-39.583l-20.833,-0l-0,208.333l20.833,0l-0,-110c-0,-56.25 32.083,-82.916 72.912,-82.916c39.167,-0 61.25,25 61.25,63.333l0,129.583l21.25,0l0,-129.583c0,-50.417 -31.25,-83.333 -80.833,-83.333l0.004,-0Z" style="fill:#002137;fill-rule:nonzero;"/><path id="path879" d="M3849,1685.15l-0,47.083c-17.504,-31.25 -49.583,-51.666 -89.583,-51.666c-59.167,-0 -107.917,47.083 -107.917,108.75c-0,61.666 48.746,108.75 107.917,108.75c40,-0 72.079,-20.417 89.583,-51.667l-0,47.083l21.25,0l-0,-208.333l-21.254,-0l0.004,-0Zm-87.913,192.917c-49.583,-0 -88.333,-39.167 -88.333,-88.75c0,-49.584 38.75,-88.75 88.333,-88.75c49.584,-0 87.917,39.166 87.917,88.75c0,49.583 -38.333,88.75 -87.917,88.75Z" style="fill:#002137;fill-rule:nonzero;"/><path id="path881" d="M4119.42,1685.15l-0,48.333c-17.088,-32.083 -49.167,-52.916 -89.583,-52.916c-59.584,-0 -107.917,47.083 -107.917,108.75c-0,61.666 48.333,108.75 107.917,108.75c40.416,-0 72.495,-20.834 89.583,-52.917l-0,38.333c-0,47.5 -30.833,77.917 -82.917,77.917c-45.833,-0 -69.171,-18.333 -80.004,-40.417l-18.333,10.417c15,30.417 49.583,50 98.333,50c57.5,-0 103.75,-35.417 103.75,-97.917l0,-198.333l-20.833,-0l0.004,-0Zm-88.329,192.917c-49.584,-0 -88.334,-39.167 -88.334,-88.75c0,-49.584 38.75,-88.75 88.334,-88.75c49.579,-0 88.329,39.166 88.329,88.75c-0,49.583 -38.746,88.75 -88.329,88.75Z" style="fill:#002137;fill-rule:nonzero;"/><path id="path883" d="M4298.17,1680.56c-63.75,-0 -107.917,47.5 -107.917,108.75c0,62.916 45.417,108.75 109.583,108.75c41.251,-0 73.751,-18.75 90.834,-47.084l-18.334,-10.833c-12.083,22.083 -37.916,37.917 -72.083,37.917c-47.5,-0 -83.333,-30.834 -88.333,-77.917l188.75,-0c-0,-3.333 0.416,-6.667 0.416,-10c0,-57.083 -39.583,-109.583 -102.916,-109.583Zm-0,20c40.833,-0 76.667,28.333 81.25,79.166l-167.5,0c4.166,-46.25 38.75,-79.166 86.25,-79.166Z" style="fill:#002137;fill-rule:nonzero;"/><path id="path885" d="M4445.67,1897.65c10.417,-0 18.746,-8.333 18.746,-18.75c-0,-10.417 -8.334,-18.75 -18.75,-18.75c-10.834,-0 -18.746,8.333 -18.746,18.75c-0,10.417 7.917,18.75 18.746,18.75l0.004,-0Z" style="fill:#002137;fill-rule:nonzero;"/><path id="path887" d="M4600.67,1898.06c40.833,-0 75.833,-20.834 92.5,-52.917l-17.5,-10.417c-13.75,25.834 -41.25,43.333 -75,43.333c-50.417,0 -88.333,-39.166 -88.333,-88.749c-0.001,-49.584 37.916,-88.751 88.333,-88.751c33.333,0 61.667,17.084 73.75,43.334l17.083,-10c-15,-32.5 -50,-53.334 -90.837,-53.334c-62.917,0 -109.584,47.084 -109.584,108.751c0,61.666 46.667,108.75 109.584,108.75l0.004,-0Z" style="fill:#002137;fill-rule:nonzero;"/><path id="path889" d="M4759.84,1725.98l-0.001,-40.833l-20.833,-0l0,208.333l20.833,0l0.001,-115.833c-0.001,-53.334 33.749,-75.417 69.583,-75.417l-0,-20c-28.338,0 -55.421,10.833 -69.583,43.75Z" style="fill:#002137;fill-rule:nonzero;"/><path id="path891" d="M4952.75,1680.56c-63.754,-0 -107.916,47.5 -107.916,108.75c-0,62.916 45.412,108.75 109.583,108.75c41.25,-0 73.75,-18.75 90.833,-47.084l-18.333,-10.833c-12.083,22.083 -37.917,37.917 -72.083,37.917c-47.501,-0 -83.334,-30.834 -88.334,-77.917l188.75,-0c0,-3.333 0.417,-6.667 0.417,-10c-0,-57.083 -39.584,-109.583 -102.917,-109.583Zm0,20c40.834,-0 76.667,28.333 81.25,79.166l-167.5,0c4.167,-46.25 38.75,-79.166 86.25,-79.166Z" style="fill:#002137;fill-rule:nonzero;"/><path id="path893" d="M5287.75,1685.15l0,47.083c-17.5,-31.25 -49.583,-51.666 -89.583,-51.666c-59.167,-0 -107.917,47.083 -107.917,108.75c0,61.666 48.75,108.75 107.917,108.75c40,-0 72.083,-20.417 89.583,-51.667l0,47.083l21.25,0l0,-208.333l-21.25,-0Zm-87.921,192.917c-49.579,-0 -88.329,-39.167 -88.329,-88.75c0,-49.584 38.75,-88.75 88.333,-88.75c49.584,-0 87.917,39.166 87.917,88.75c0,49.583 -38.333,88.75 -87.917,88.75l-0.004,-0Z" style="fill:#002137;fill-rule:nonzero;"/><path id="path895" d="M5479.84,1705.56l-0,-20.417l-62.084,-0l0,-58.333l-21.25,6.25l0,52.083l-45.833,-0l-0,20.417l45.833,-0l0,135.416c0,47.5 28.75,60.834 83.334,52.5l-0,-18.75c-42.5,3.75 -62.084,2.917 -62.084,-33.75l0,-135.416l62.084,-0Z" style="fill:#002137;fill-rule:nonzero;"/><path id="path897" d="M5611.09,1680.56c-63.755,-0 -107.917,47.5 -107.917,108.75c-0,62.916 45.417,108.75 109.583,108.75c41.25,-0 73.75,-18.75 90.834,-47.084l-18.334,-10.833c-12.083,22.083 -37.916,37.917 -72.083,37.917c-47.5,-0 -83.333,-30.834 -88.333,-77.917l188.749,-0c0.001,-3.333 0.417,-6.667 0.417,-10c0,-57.083 -39.583,-109.583 -102.917,-109.583Zm0.001,20c40.833,-0 76.666,28.333 81.25,79.166l-167.5,0c4.166,-46.25 38.75,-79.166 86.25,-79.166Z" style="fill:#002137;fill-rule:nonzero;"/><path id="path899" d="M5758.59,1897.65c10.42,-0 18.75,-8.333 18.75,-18.75c-0,-10.417 -8.334,-18.75 -18.75,-18.75c-10.834,-0 -18.746,8.333 -18.746,18.75c-0,10.417 7.916,18.75 18.746,18.75Z" style="fill:#002137;fill-rule:nonzero;"/><path id="path901" d="M6027.59,644.8l11.617,0c13.575,0 24.6,-4.5 24.6,-15.521c0,-9.671 -7.121,-16.166 -22.637,-16.166c-6.496,-0 -10.992,0.645 -13.58,1.32l0,30.367Zm-0.641,59.496l-24.55,-0l-0,-105.383c9.671,-1.98 23.25,-3.909 40.712,-3.909c20.017,0 29.1,3.229 36.859,8.404c5.8,4.534 10.345,12.934 10.345,22.642c0,12.292 -9.079,21.333 -22.012,25.225l-0,1.283c10.346,3.23 16.2,11.65 19.429,25.867c3.208,16.167 5.171,22.604 7.758,25.871l-26.508,-0c-3.267,-3.871 -5.175,-12.933 -8.437,-25.225c-1.913,-11.667 -8.405,-16.842 -21.963,-16.842l-11.633,0l-0,42.067Zm16.162,-139.688c-46.562,0 -81.525,38.159 -81.525,84.688c0,47.237 34.963,84.721 82.792,84.721c46.562,0.641 80.833,-37.484 80.833,-84.721c0,-46.529 -34.271,-84.688 -81.458,-84.688l-0.642,0Zm1.267,-21.354c60.817,0 108.042,47.221 108.042,106.042c-0,60.171 -47.225,106.717 -108.667,106.717c-60.779,-0 -109.271,-46.546 -109.271,-106.717c0,-58.821 48.492,-106.042 109.271,-106.042l0.625,0Z" style="fill:#113579;fill-rule:nonzero;"/><path d="M6127.05,1681.66l-8.317,-56.691l79.788,70.916l-11.15,9.909l-68.638,61.008l8.159,-58.767l-234.125,0c-3.367,0 -6.546,1.371 -8.921,3.788c-2.375,2.412 -3.725,5.641 -3.725,9.062l-0,46.271l-25.975,0l-0,-46.271c-0,-10.429 4.079,-20.35 11.333,-27.72c7.254,-7.367 16.008,-11.505 26.271,-11.505l235.3,0Z" style="fill:#253977;"/><path d="M5925.59,1844.96l8.317,56.691l-79.787,-70.916l11.146,-9.909l68.641,-61.008l-8.158,58.767l234.125,-0c3.367,-0 6.546,-1.371 8.921,-3.784c2.375,-2.412 3.725,-5.641 3.725,-9.062l-0,-46.275l25.975,-0l-0,46.275c-0,10.429 -4.079,20.35 -11.334,27.721c-7.254,7.366 -16.008,11.5 -26.275,11.5l-235.296,-0Z" style="fill:#253977;"/></svg>